<svg height="32" viewBox="0 0 32 32" width="32" xmlns="http://www.w3.org/2000/svg"><g fill="none" fill-rule="evenodd"><path d="m7 24.203175v3.2126985c0 .3285714.25609756.5841265.58536585.5841265h16.82926825c.3292683 0 .5853659-.2555551.5853659-.5841265v-3.2126985c0-3.9793651-2.6341463-7.3746033-6.2195122-8.5428573 1.7195122-.9857143 2.9268293-2.8111112 2.9268293-4.9650795 0-3.13968259-2.5609756-5.6952382-5.7073171-5.6952382s-5.7073171 2.55555561-5.7073171 5.6952382c0 2.1174604 1.1707317 3.9793652 2.9268293 4.9650795-3.62195122 1.131746-6.2195122 4.5269842-6.2195122 8.5428573z" fill="#f9e6ee"/><path d="m7 24.203175v3.2126985c0 .3285714.25609756.5841265.58536585.5841265h16.82926825c.3292683 0 .5853659-.2555551.5853659-.5841265v-3.2126985c0-3.9793651-2.6341463-7.3746033-6.2195122-8.5428573 1.7195122-.9857143 2.9268293-2.8111112 2.9268293-4.9650795 0-3.13968259-2.5609756-5.6952382-5.7073171-5.6952382s-5.7073171 2.55555561-5.7073171 5.6952382c0 2.1174604 1.1707317 3.9793652 2.9268293 4.9650795-3.62195122 1.131746-6.2195122 4.5269842-6.2195122 8.5428573zm4.4634146-13.5079368c0-2.48253972 2.0121952-4.52698421 4.5365854-4.52698421 2.4878049 0 4.5365854 2.00793656 4.5365854 4.52698421 0 2.5190477-2.0487805 4.4904763-4.5365854 4.4904763s-4.5365854-2.0079365-4.5365854-4.4904763zm4.5365854 5.6587303c4.3170732 0 7.8292683 3.504762 7.8292683 7.8126986v2.6285715h-15.65853659v-2.6285715c0-4.3079366 3.51219509-7.8126986 7.82926829-7.8126986z" fill="#000"/></g></svg>