<?xml version="1.0" encoding="UTF-8"?>
<svg width="32px" height="32px" viewBox="0 0 32 32" version="1.1" xmlns="http://www.w3.org/2000/svg" xmlns:xlink="http://www.w3.org/1999/xlink">
    <title>Atoms/Icons/Account</title>
    <g id="Atoms/Icons/Account" stroke="none" stroke-width="1" fill="none" fill-rule="evenodd">
        <path d="M7,24.203175 L7,27.4158735 C7,27.7444449 7.25609756,28 7.58536585,28 L24.4146341,28 C24.7439024,28 25,27.7444449 25,27.4158735 L25,24.203175 C25,20.2238099 22.3658537,16.8285717 18.7804878,15.6603177 C20.5,14.6746034 21.7073171,12.8492065 21.7073171,10.6952382 C21.7073171,7.55555561 19.1463415,5 16,5 C12.8536585,5 10.2926829,7.55555561 10.2926829,10.6952382 C10.2926829,12.8126986 11.4634146,14.6746034 13.2195122,15.6603177 C9.59756098,16.7920637 7,20.1873019 7,24.203175 Z" id="hover-state" fill="#FFFFFF"></path>
        <path d="M7,24.203175 L7,27.4158735 C7,27.7444449 7.25609756,28 7.58536585,28 L24.4146341,28 C24.7439024,28 25,27.7444449 25,27.4158735 L25,24.203175 C25,20.2238099 22.3658537,16.8285717 18.7804878,15.6603177 C20.5,14.6746034 21.7073171,12.8492065 21.7073171,10.6952382 C21.7073171,7.55555561 19.1463415,5 16,5 C12.8536585,5 10.2926829,7.55555561 10.2926829,10.6952382 C10.2926829,12.8126986 11.4634146,14.6746034 13.2195122,15.6603177 C9.59756098,16.7920637 7,20.1873019 7,24.203175 Z M11.4634146,10.6952382 C11.4634146,8.21269848 13.4756098,6.16825399 16,6.16825399 C18.4878049,6.16825399 20.5365854,8.17619055 20.5365854,10.6952382 C20.5365854,13.2142859 18.4878049,15.1857145 16,15.1857145 C13.5121951,15.1857145 11.4634146,13.177778 11.4634146,10.6952382 Z M16,16.3539685 C20.3170732,16.3539685 23.8292683,19.8587305 23.8292683,24.1666671 L23.8292683,26.7952386 L8.17073171,26.7952386 L8.17073171,24.1666671 C8.17073171,19.8587305 11.6829268,16.3539685 16,16.3539685 Z" id="icon-account" fill="#000000"></path>
    </g>
</svg>