<?xml version="1.0" encoding="UTF-8"?>
<svg width="32px" height="32px" viewBox="0 0 32 32" version="1.1" xmlns="http://www.w3.org/2000/svg" xmlns:xlink="http://www.w3.org/1999/xlink">
    <title>D7FC015C-4957-4699-8E8E-C55D6D742665@3x</title>
    <g id="//-UI-Kit" stroke="none" stroke-width="1" fill="none" fill-rule="evenodd">
        <g id="UIKit_V1-1" transform="translate(-1123.000000, -11278.000000)">
            <g id="Atoms/Icons/Cart" transform="translate(1123.000000, 11278.000000)">
                <rect id="hover-state" fill="#FFFFFF" x="6" y="8" width="20" height="20"></rect>
                <path d="M16,3.5 C13.5857267,3.5 11.6155109,5.40123652 11.504898,7.7881643 L11.5,8 L10.5,8 C10.5,4.96243388 12.9624339,2.5 16,2.5 C18.9634791,2.5 21.3795391,4.84378001 21.4956328,7.77879286 L21.5,8 L26,8 L26,28 L6,28 L6,8 L20.5,8 C20.5,5.51471863 18.4852814,3.5 16,3.5 Z M25,9 L7,9 L7,27 L25,27 L25,9 Z" id="icon-bag" fill="#000000" fill-rule="nonzero"></path>
            </g>
        </g>
    </g>
</svg>