<?xml version="1.0" encoding="UTF-8"?>
<svg width="17px" height="16px" viewBox="0 0 17 16" version="1.1" xmlns="http://www.w3.org/2000/svg" xmlns:xlink="http://www.w3.org/1999/xlink">
    <g id="PDP" stroke="none" stroke-width="1" fill-rule="evenodd">
        <g id="BOU_M_PDP_Default" transform="translate(-17.000000, -821.000000)" fill-rule="nonzero">
            <g id="Product" transform="translate(-1.000000, 0.000000)">
                <g id="Components-/-Organism-/-PDP-/-Mobile-/-Product-Form-/-Default" transform="translate(0.000000, 96.000000)">
                    <g id="Product-Form">
                        <g transform="translate(0.000000, 174.000000)">
                            <g id="Below-ATC-Info" transform="translate(18.000000, 534.000000)">
                                <g id="Registry-+-Share">
                                    <g id="Registry-Link" transform="translate(0.000000, 16.500000)">
                                        <g id="card_giftcard-24px" transform="translate(0.000000, 0.500000)">
                                            <path d="M15.3,3.36842105 L13.447,3.36842105 C13.5405,3.10736842 13.6,2.82105263 13.6,2.52631579 C13.6,1.12842105 12.461,0 11.05,0 C10.1575,0 9.384,0.454736842 8.925,1.13684211 L8.5,1.70105263 L8.075,1.12842105 C7.616,0.454736842 6.8425,0 5.95,0 C4.539,0 3.4,1.12842105 3.4,2.52631579 C3.4,2.82105263 3.4595,3.10736842 3.553,3.36842105 L1.7,3.36842105 C0.7565,3.36842105 0.0085,4.11789474 0.0085,5.05263158 L0,14.3157895 C0,15.2505263 0.7565,16 1.7,16 L15.3,16 C16.2435,16 17,15.2505263 17,14.3157895 L17,5.05263158 C17,4.11789474 16.2435,3.36842105 15.3,3.36842105 Z M11.05,1.68421053 C11.5175,1.68421053 11.9,2.06315789 11.9,2.52631579 C11.9,2.98947368 11.5175,3.36842105 11.05,3.36842105 C10.5825,3.36842105 10.2,2.98947368 10.2,2.52631579 C10.2,2.06315789 10.5825,1.68421053 11.05,1.68421053 Z M5.95,1.68421053 C6.4175,1.68421053 6.8,2.06315789 6.8,2.52631579 C6.8,2.98947368 6.4175,3.36842105 5.95,3.36842105 C5.4825,3.36842105 5.1,2.98947368 5.1,2.52631579 C5.1,2.06315789 5.4825,1.68421053 5.95,1.68421053 Z M15.3,14.3157895 L1.7,14.3157895 L1.7,12.6315789 L15.3,12.6315789 L15.3,14.3157895 Z M15.3,10.1052632 L1.7,10.1052632 L1.7,5.05263158 L6.018,5.05263158 L4.25,7.43578947 L5.627,8.42105263 L7.65,5.69263158 L8.5,4.54736842 L9.35,5.69263158 L11.373,8.42105263 L12.75,7.43578947 L10.982,5.05263158 L15.3,5.05263158 L15.3,10.1052632 Z" id="Shape"></path>
                                        </g>
                                    </g>
                                </g>
                            </g>
                        </g>
                    </g>
                </g>
            </g>
        </g>
    </g>
</svg>