<?xml version="1.0" encoding="UTF-8"?>
<svg width="32px" height="32px" viewBox="4 4 24 24" version="1.1" xmlns="http://www.w3.org/2000/svg" xmlns:xlink="http://www.w3.org/1999/xlink">
    <title>1B8FE53A-98EA-43F2-A4A2-3B9462F448A4@3x</title>
    <g id="//-UI-Kit" stroke="none" stroke-width="1" fill="none" fill-rule="evenodd">
        <g id="UIKit_V1-1" transform="translate(-196.000000, -11093.000000)" fill="#000000">
            <g id="Atoms/Icons/Social-Instagram" transform="translate(196.000000, 11093.000000)">
                <path d="M21.3767257,4 C25.0289243,4 28.000142,6.97121766 28,10.6231323 L28,10.6231323 L28,21.3768677 C28,25.0287823 25.0289243,28 21.3767257,28 L21.3767257,28 L10.6229904,28 C6.9710757,28 4,25.0289243 4,21.3768677 L4,21.3768677 L4,10.6231323 C4,6.97121766 6.9710757,4 10.6229904,4 L10.6229904,4 Z M21.3767257,6.12939632 L10.6229904,6.12939632 C8.14522483,6.12939632 6.12939632,8.14536679 6.12939632,10.6231323 L6.12939632,10.6231323 L6.12939632,21.3768677 C6.12939632,23.8547752 8.14522483,25.8707456 10.6229904,25.8706037 L10.6229904,25.8706037 L21.3768677,25.8706037 C23.8547752,25.8706037 25.8707456,23.8547752 25.8706037,21.3768677 L25.8706037,21.3768677 L25.8706037,10.6231323 C25.8706037,8.14536679 23.8546332,6.12939632 21.3767257,6.12939632 L21.3767257,6.12939632 Z M15.7966102,9.69491525 C19.1611354,9.69491525 21.8983051,12.4321478 21.8983051,15.7967502 C21.8983051,19.1612127 19.1611354,21.8983051 15.7966102,21.8983051 C12.4320849,21.8983051 9.69491525,19.1612127 9.69491525,15.7967502 C9.69491525,12.4321478 12.4320849,9.69491525 15.7966102,9.69491525 Z M15.7966102,11.7958133 C13.5905708,11.7958133 11.7959052,13.5905201 11.7959052,15.7966102 C11.7959052,18.0025602 13.5907108,19.7971269 15.7966102,19.7971269 C18.0025095,19.7971269 19.7973152,18.0025602 19.7973152,15.7966102 C19.7973152,13.5905201 18.0026496,11.7958133 15.7966102,11.7958133 Z M22.3050847,8.06779661 C22.7340524,8.06779661 23.1541448,8.24086287 23.4559014,8.54409861 C23.7591371,8.84585516 23.9322034,9.26594761 23.9322034,9.69491525 C23.9322034,10.1224037 23.7591371,10.5424961 23.4559014,10.8457319 C23.1526656,11.1474884 22.7340524,11.3220339 22.3050847,11.3220339 C21.8775963,11.3220339 21.4575039,11.1474884 21.1557473,10.8457319 C20.8525116,10.5424961 20.6779661,10.1225516 20.6779661,9.69491525 C20.6779661,9.26594761 20.8523636,8.84585516 21.1557473,8.54409861 C21.4576518,8.24086287 21.8775963,8.06779661 22.3050847,8.06779661 Z" id="Combined-Shape"></path>
            </g>
        </g>
    </g>
</svg>