<?xml version="1.0" encoding="UTF-8"?>
<svg width="32px" height="32px" viewBox="4 4 24 24" version="1.1" xmlns="http://www.w3.org/2000/svg" xmlns:xlink="http://www.w3.org/1999/xlink">
    <title>121D6CF0-5EC6-44E7-A21F-4FF44D9244B8@3x</title>
    <g id="//-UI-Kit" stroke="none" stroke-width="1" fill="none" fill-rule="evenodd">
        <g id="UIKit_V1-1" transform="translate(-197.000000, -11333.000000)" fill="#000000">
            <g id="Atoms/Icons/Social-Pinterest" transform="translate(197.000000, 11333.000000)">
                <path d="M14.9212126,5.0775558 C11.0391246,5.50539358 7.16871139,8.59074677 7.00805074,13.0026379 C6.91018418,15.6959993 7.68720714,17.7160322 10.2942434,18.2846092 C11.42324,16.3205887 9.9305949,15.8912868 9.69690667,14.4684983 C8.7402455,8.6538905 16.5204684,4.68273034 20.5953588,8.74579605 C23.4171057,11.5597776 21.5578333,20.2113197 17.0126838,19.3111554 C12.6588473,18.4525989 19.1450408,11.5655394 15.6704659,10.2145373 C12.8457883,9.11478783 11.3458404,13.5740958 12.6851276,15.790833 C11.8993606,19.6026461 10.2080997,23.1918741 10.8930695,27.9713402 C13.1130596,26.3863238 13.8623128,23.3555661 14.4757444,20.1927119 C15.5915769,20.8603258 16.1889616,21.5508926 17.6115099,21.6585722 C22.8577241,22.059065 25.791895,16.5100671 25.0718528,11.3874901 C24.4336302,6.84780015 19.8315,4.53632377 14.9212126,5.0775558 Z" id="icon-pinterest"></path>
            </g>
        </g>
    </g>
</svg>