<svg xmlns="http://www.w3.org/2000/svg" width="280" height="148">
    <g fill="none" fill-rule="evenodd">
        <path fill="#000000" d="M16.33 116.46V85.5c0-1.04-.13-1.64-.43-2.65L.05 30.94H12.7c3.77 14.56 8.2 31.55 9.55 40.25h.13c1.72-9.33 6.13-26.13 9.61-40.24h12.18L28.06 83.73c-.13.6-.26 1.39-.26 2.96v29.77H16.33M49.25 30.95h11.46v75.24h17.96l-1.08 10.27H49.25V30.95M109.74 81.18c-2.39-16.33-4.37-30.44-5.28-39.44h-.44c-.34 6.86-3.12 25.56-5.08 39.44h10.8zM97.46 91.73L94 116.46H82.35l13.9-85.51h16.24l14.44 85.51h-12l-3.8-24.73H97.47zM133.64 116.46V30.95h13.42C150.97 44.6 161.89 87.9 163 93.48h.16c-.56-10.94-.64-22.97-.64-36.98V30.95h10.66v85.51h-12.92c-3.48-12.67-15.23-59.64-16.4-64.59h-.13c.6 10.34.66 22.8.66 38.2v26.4h-10.75M222 116.46h-9c-.3-1.46-.56-4.96-.65-6.83-2.28 5.96-7.2 8.04-12.74 8.04-12.26 0-16.25-8.95-16.25-23.1V53.3c0-14 5.53-23.56 19.46-23.56 16.67 0 18.9 12.08 18.9 21.97v2.53h-11.46v-2.99c0-5.13-.68-11.05-7.48-11.05-5.29 0-7.73 3.5-7.73 11.55v43.88c0 7.52 2.07 11.85 7.46 11.85 6.61 0 7.98-5.82 7.98-15.5V79h-8.33V69.1H222v47.37"/>
        <path fill="#EF4E98" d="M241.58 82.24h-44.79l39.9-51.88a16.7 16.7 0 001.65-17.78 15.87 15.87 0 00-15.6-8.95 19.2 19.2 0 00-17.8 20.33l-3.54.23c-.09-1.28-.06-2.59.07-3.88A22.78 22.78 0 01223.66.04 19.59 19.59 0 01241.52 11a20.22 20.22 0 01-2.02 21.54L204 78.68h37.58v3.56"/>
        <path fill="#EF4E98" d="M254.35 147.78a25.64 25.64 0 01-23.39-15.2l3.25-1.44a22.08 22.08 0 0020.14 13.08 22.07 22.07 0 0022.05-22.04 22.07 22.07 0 00-22.05-22.05 22.41 22.41 0 00-15.72 6.43l-2.58-2.44 31.06-34.96h-36.36v-3.55h44.27l-28.63 32.22a25.63 25.63 0 0133.56 24.35 25.63 25.63 0 01-25.6 25.6"/>
    </g>
</svg>