<?xml version="1.0" encoding="UTF-8"?>
<svg width="32px" height="32px" viewBox="0 0 32 32" version="1.1" xmlns="http://www.w3.org/2000/svg" xmlns:xlink="http://www.w3.org/1999/xlink">
    <title>Atoms/Icons/Search</title>
    <g id="Atoms/Icons/Search" stroke="none" stroke-width="1" fill="none" fill-rule="evenodd">
        <circle id="hover-state" fill="#FFFFFF" cx="14" cy="14" r="7"></circle>
        <path d="M14,7 C17.8659932,7 21,10.1340068 21,14 C21,15.6628373 20.4202012,17.1902554 19.4517398,18.3911181 L25.7175144,24.6568542 L24.6568542,25.7175144 L18.3911181,19.4517398 C17.1902554,20.4202012 15.6628373,21 14,21 C10.1340068,21 7,17.8659932 7,14 C7,10.1340068 10.1340068,7 14,7 Z M14,8.5 C10.9624339,8.5 8.5,10.9624339 8.5,14 C8.5,17.0375661 10.9624339,19.5 14,19.5 C17.0375661,19.5 19.5,17.0375661 19.5,14 C19.5,10.9624339 17.0375661,8.5 14,8.5 Z" id="icon-search" fill="#000000" fill-rule="nonzero"></path>
    </g>
</svg>