<svg xmlns="http://www.w3.org/2000/svg" width="120" height="120">
  <path fill="#000000" fill-rule="evenodd" d="M59.96 0l59.96 59.97-59.96 59.97L0 59.97 59.96 0zm0 1.78L1.78 59.98l58.18 58.18 58.17-58.19L59.96 1.78zM24.1 73.11l35.86 35.86L95.81 73.1h1.79l-37.64 37.64-37.64-37.64h1.78zM51.07 90.3l8.9 8.9 8.88-8.9h1.79l-10.68 10.68L49.28 90.3h1.79zm29.36-33.02L70 68.45a9.93 9.93 0 012.9-.44c5.14 0 9.31 3.98 9.32 8.88a9 9 0 01-7.39 8.68A9.45 9.45 0 0164.4 80.5l1.18-.5a8.15 8.15 0 009.54 4.26 7.65 7.65 0 005.75-8.42c-.56-3.77-3.95-6.58-7.95-6.58-2.14 0-4.2.8-5.73 2.22l-.94-.85L77.55 58.5H64.32v-1.23h16.1zm-45.06-9.56l8.68 13.24 9.3-13.24h1.56L44.67 62.28V80h-1.29V62.27l-9.53-14.55h1.52zm72.6 9.17l-.1.86h-1.83c-.04.57-.1 1.39-.15 1.84.22-.25.55-.39.9-.37.97 0 1.33.7 1.33 1.89v.76c0 1.2-.35 2.1-1.71 2.1-1.24 0-1.65-.77-1.65-1.71v-.14h1v.22c0 .4.1.84.65.84.56 0 .66-.41.66-1.18v-.85c0-.71-.12-1.08-.63-1.08-.44 0-.6.24-.69.7l-.9-.09c.1-.98.25-2.91.3-3.79h2.82zm-10.6-.12c1.08 0 1.61.63 1.6 1.81v3c0 1.27-.13 2.38-1.62 2.38-1.26 0-1.55-.82-1.55-1.61v-.05h1v.1c0 .47.18.74.57.74.48 0 .62-.33.62-1.34V60.7a.98.98 0 01-.95.47c-.95 0-1.31-.67-1.31-1.68v-.98c0-1.09.54-1.75 1.63-1.75zm-81.5-.21c1.3 0 1.55.85 1.55 1.69v.37h-.99v-.34c0-.54-.1-.88-.54-.88-.44 0-.55.36-.55.87 0 .57.1.83.77 1.31 1.1.78 1.44 1.22 1.44 2.41 0 1.01-.38 1.96-1.7 1.96-1.32 0-1.67-.8-1.67-1.75v-.43h1v.44c0 .6.2.92.68.92.5 0 .65-.4.65-1 0-.8-.18-1.07-.99-1.68-.8-.6-1.23-.98-1.23-2.05 0-.92.28-1.84 1.58-1.84zm86.07.23c.9 0 1.55.46 1.55 1.67v.3c0 .87-.3 1.16-.64 1.35.44.21.73.57.72 1.38v.67c0 1.3-.6 1.8-1.7 1.8-.92 0-1.65-.41-1.65-1.74v-.73c0-.88.39-1.16.74-1.37-.4-.23-.63-.6-.63-1.34v-.33c0-1.1.59-1.66 1.6-1.66zm-80.12-.12v.9h-1.21v6.3H19.6v-6.3h-1.22v-.9h3.44zm-8.78 0v.9h-1.77v2.04h1.68v.89h-1.68v2.48h1.92l-.13.88h-2.8v-7.19h2.78zm81.25.16v7.03h-1.03v-5.88c-.25.06-.51.1-.77.11v-.74c.4-.05.78-.24 1.06-.52h.74zm7.62 3.71c-.44 0-.66.26-.66.83v.9c0 .5.18.85.66.85.49 0 .67-.29.67-.85v-.9c0-.6-.23-.83-.67-.83zm-40.18-26a7.17 7.17 0 016.5 3.8 6.73 6.73 0 01-.73 7.47l-12.92 16h13.68v1.23h-16.3l14.52-17.98a5.55 5.55 0 00.6-6.17 5.8 5.8 0 00-5.33-3.11h-.35a6.83 6.83 0 00-6.46 5.9c-.04.38-.05.76-.02 1.14l-1.29.08c-.03-.45-.02-.9.03-1.35a8.12 8.12 0 017.65-7zm35.63 23.02c-.43 0-.62.28-.62.85v1.1c0 .46.08.83.6.83.51 0 .65-.41.65-1.07v-.86c0-.55-.19-.85-.63-.85zm4.55.05c-.46 0-.61.34-.61.78v.56c0 .47.23.77.62.77s.6-.23.6-.79v-.54c0-.44-.15-.78-.6-.78zM59.96 9.05l37.48 37.5h-1.78l-35.7-35.71-35.7 35.7h-1.78L59.96 9.05zm0 9.78l10.7 10.7h-1.78l-8.92-8.92-8.91 8.92h-1.8l10.71-10.7z"/>
</svg>