<?xml version="1.0" encoding="UTF-8"?>
<svg width="32px" height="32px" viewBox="4 4 24 24" version="1.1" xmlns="http://www.w3.org/2000/svg" xmlns:xlink="http://www.w3.org/1999/xlink">
    <title>8D373521-6E2B-4483-AD98-E8E7F81341DB@3x</title>
    <g id="//-UI-Kit" stroke="none" stroke-width="1" fill="none" fill-rule="evenodd">
        <g id="UIKit_V1-1" transform="translate(-301.000000, -11093.000000)" fill="#000000">
            <g id="Atoms/Icons/Social-Twitter" transform="translate(301.000000, 11093.000000)">
                <path d="M27.3917358,8.24809472 C26.5307885,8.62958704 25.6070046,8.88831076 24.6363988,9.0038172 C25.6274533,8.41034649 26.3860806,7.4690187 26.7456336,6.35080017 C25.8160017,6.90039219 24.7898596,7.29946656 23.6964853,7.51580224 C22.8209373,6.58177482 21.5755546,6 20.1942169,6 C17.5441429,6 15.395425,8.14871791 15.395425,10.7973394 C15.395425,11.1729838 15.437813,11.5398754 15.5196843,11.8907138 C11.5321512,11.6904312 7.99628583,9.77998837 5.62977981,6.87700042 C5.21610469,7.58448691 4.98077275,8.40885584 4.98077275,9.28883756 C4.98077275,10.9537432 5.82857167,12.4227619 7.1148899,13.2822185 C6.32847528,13.2559219 5.5888442,13.0395862 4.94132779,12.679995 L4.94132779,12.7399269 C4.94132779,15.0640449 6.59599003,17.0037275 8.79000083,17.4451899 C8.3880216,17.5533577 7.96414125,17.6132896 7.52562194,17.6132896 C7.21575737,17.6132896 6.91609805,17.5825974 6.62228666,17.524118 C7.23326298,19.431656 9.00488409,20.8188035 11.1039136,20.8568342 C9.46239967,22.1431525 7.39260989,22.9076278 5.14451516,22.9076278 C4.75717491,22.9076278 4.37564437,22.884236 4,22.8418479 C6.1238737,24.2056419 8.64533112,25.0008093 11.3553369,25.0008093 C20.1825974,25.0008093 25.0077241,17.6893128 25.0077241,11.3484221 L24.9916327,10.7272023 C25.934413,10.0547653 26.7500291,9.20990943 27.3917358,8.24809472 L27.3917358,8.24809472 Z" id="icon-twitter"></path>
            </g>
        </g>
    </g>
</svg>