<?xml version="1.0" encoding="utf-8"?>
<!-- Generator: Adobe Illustrator 24.0.1, SVG Export Plug-In . SVG Version: 6.00 Build 0)  -->
<svg version="1.1" id="Layer_1" xmlns="http://www.w3.org/2000/svg" xmlns:xlink="http://www.w3.org/1999/xlink" x="0px" y="0px"
	 viewBox="0 0 16 16" style="enable-background:new 0 0 16 16;" xml:space="preserve">
<path d="M8,13.8c-1,0-4.2,0.1-4.9-1.8c-0.4-1-1.3-4-0.7-4.6c1-1.1,1.5-0.8,2-2.7C4.9,3,6.1,2.2,8,2.2h0c1.9,0,3.1,0.8,3.6,2.6
	c0.5,1.9,1,1.6,2,2.7C14.2,8,13.3,11,12.9,12C12.2,13.9,9,13.8,8,13.8z M8,3.5c-1.2,0-2,0.3-2,0.9c0,0.3,0.4,0.5,0.6,0.6
	C6.9,5,7.4,5.1,8,5.1S9.1,5,9.4,4.9C9.6,4.8,10,4.7,10,4.3C10,3.8,9.2,3.5,8,3.5z"/>
</svg>
